<?xml version="1.0" encoding="UTF-8" standalone="no"?>
<svg width="772px" height="772px" viewBox="0 0 772 772" version="1.1" xmlns="http://www.w3.org/2000/svg" xmlns:xlink="http://www.w3.org/1999/xlink">
    <!-- Generator: Sketch 41.2 (35397) - http://www.bohemiancoding.com/sketch -->
    <title>logo-white</title>
    <desc>Created with Sketch.</desc>
    <defs></defs>
    <g id="Page-1" stroke="none" stroke-width="1" fill="none" fill-rule="evenodd">
        <g id="logo">
            <g id="layer1">
                <rect id="rect4200" x="0" y="0.077" width="771.428" height="771.429"></rect>
                <path d="M351.773,753.908 C351.045,752.678 347.521,738.935 343.941,723.371 C340.361,707.807 334.614,683.418 331.17,669.174 L324.907,643.278 L287.479,626.895 L250.051,610.51 L208.35,638.737 C185.414,654.262 163.525,668.626 159.706,670.659 C151.983,674.77 150.193,673.37 113.498,634.518 L91.944,611.696 L127.231,566.844 L162.518,521.994 L147.41,485.605 L132.302,449.218 L109.125,443.294 C96.377,440.036 70.958,433.53 52.637,428.837 L19.326,420.302 L20.393,378.649 L21.46,336.996 L74.327,328.363 C103.404,323.615 128.291,318.434 129.632,316.849 C130.972,315.265 138.529,298.359 146.424,279.279 L160.779,244.589 L133.795,199.855 C118.954,175.251 106.811,153.84 106.811,152.275 C106.811,150.181 140.616,102.261 150.709,90.046 C151.299,89.332 171.964,101.903 196.629,117.983 C221.295,134.062 244.166,147.927 247.453,148.793 C250.74,149.659 269.38,143.783 288.874,135.735 L324.319,121.103 L335.496,63.775 L346.674,6.447 L389.177,6.447 L431.679,6.447 L443.958,60.216 C450.712,89.789 457.733,115.486 459.563,117.32 C463.372,121.14 527.174,149.831 531.862,149.831 C533.567,149.831 556.237,135.428 582.241,117.823 L629.522,85.815 L660.249,118.025 L690.978,150.235 L667.277,180.408 C654.242,197.004 638.224,217.713 631.683,226.428 L619.79,242.275 L628.327,261.142 C633.022,271.518 639.89,287.172 643.589,295.929 C650.87,313.17 651.984,313.694 713.755,328.989 C727.316,332.346 743.96,336.841 750.739,338.973 L763.069,342.853 L763.069,381.957 C763.069,403.464 761.471,422.042 759.518,423.244 C757.565,424.443 734.094,428.998 707.358,433.363 C680.624,437.728 656.753,443.213 654.313,445.552 C651.873,447.891 643.786,464.943 636.34,483.443 L622.803,517.08 L649.737,563.559 L676.671,610.038 L654.773,640.29 C642.728,656.931 631.527,670.544 629.88,670.544 C628.235,670.544 606.069,657.128 580.626,640.733 L534.364,610.92 L509.307,620.213 C495.528,625.324 478.317,632.371 471.061,635.875 L457.868,642.244 L447.438,696.555 C441.704,726.426 435.975,751.895 434.711,753.155 C431.725,756.13 353.507,756.839 351.773,753.908 L351.773,753.908 Z M329.974,568.433 C327.431,561.177 326.905,543.984 328.558,522.21 C330.006,503.142 331.014,478.017 330.797,466.378 C330.58,454.739 331.907,441.155 333.745,436.192 C336.102,429.825 335.154,422.883 330.526,412.63 C322.552,394.958 320.452,397.746 315.481,432.61 C311.724,458.964 306.061,473.872 292.466,493.2 C288.33,499.079 284.945,513.374 283.479,531.149 L281.126,559.665 L300.95,569.825 C311.853,575.413 323.755,579.985 327.399,579.985 C333.141,579.986 333.483,578.449 329.974,568.433 L329.974,568.433 Z M483.167,562.525 L501.044,553.589 L498.671,528.316 C496.931,509.773 493.353,498.33 485.232,485.337 C473.97,467.316 467.441,446.595 467.279,428.357 C467.228,422.785 465.293,413.446 462.976,407.604 L458.763,396.982 L454.048,410.189 C449.294,423.502 449.3,465.676 454.068,517.727 C455.398,532.254 454.793,551.418 452.726,560.313 C449.111,575.858 449.283,576.389 457.128,573.975 C461.616,572.591 473.334,567.441 483.167,562.525 L483.167,562.525 Z M250.613,506.189 C265.637,496.298 269.929,486.378 269.929,461.543 C269.929,455.027 273.343,443.359 277.516,435.615 C281.689,427.871 285.123,416.86 285.148,411.146 C285.173,405.431 287.713,391.417 290.793,380.002 C293.873,368.587 296.414,350.172 296.438,339.078 C296.5,311.515 304.762,299.121 332.142,285.511 C344.493,279.372 356.825,274.35 359.547,274.35 C371.487,274.35 376.221,247.683 366.541,234.953 C360.129,226.52 359.074,194.368 364.857,183.62 C368.408,177.02 367.672,176.599 356.322,178.732 C320.619,185.442 266.415,213.836 245.64,236.71 C224.901,259.544 206.963,289.1 197.346,316.285 C185.471,349.85 185.363,412.888 197.121,446.51 C204.361,467.213 230.52,515.84 234.416,515.84 C235.261,515.839 242.549,511.498 250.613,506.189 Z M565.883,487.421 C635.858,365.769 572.252,209.225 440.279,178.281 C408.929,170.931 409.836,170.759 416.175,182.847 C423.245,196.327 423.2,225.608 416.095,234.952 C406.415,247.682 411.148,274.349 423.089,274.349 C425.812,274.349 438.587,279.593 451.482,286.001 C479.111,299.734 486.152,310.626 486.152,339.631 C486.152,350.839 487.849,364.932 489.925,370.948 C491.999,376.965 495.261,392.075 497.175,404.527 C499.087,416.979 503.353,434.807 506.652,444.147 C509.953,453.485 513.597,469.014 514.75,478.653 C516.539,493.618 518.9,497.551 530.898,505.563 C547.504,516.652 549.735,515.496 565.883,487.421 L565.883,487.421 Z" id="path3375" fill="#FFFFFF"></path>
            </g>
        </g>
    </g>
</svg>